<mxfile host="app.diagrams.net" modified="2022-08-01T02:01:19.625Z" agent="5.0 (Macintosh; Intel Mac OS X 10_10_5) AppleWebKit/537.36 (KHTML, like Gecko) Chrome/87.0.4280.88 Safari/537.36" etag="nbtEuV8Y8qwxesHSKli7" version="20.2.2" type="github">
  <diagram id="C5RBs43oDa-KdzZeNtuy" name="Page-1">
    <mxGraphModel dx="2466" dy="1955" grid="1" gridSize="10" guides="1" tooltips="1" connect="1" arrows="1" fold="1" page="1" pageScale="1" pageWidth="827" pageHeight="1169" math="0" shadow="0">
      <root>
        <mxCell id="WIyWlLk6GJQsqaUBKTNV-0" />
        <mxCell id="WIyWlLk6GJQsqaUBKTNV-1" parent="WIyWlLk6GJQsqaUBKTNV-0" />
        <mxCell id="9xZsUPCnPqPR40P-3TfL-2" style="edgeStyle=orthogonalEdgeStyle;rounded=0;orthogonalLoop=1;jettySize=auto;html=1;entryX=0.5;entryY=0;entryDx=0;entryDy=0;entryPerimeter=0;" edge="1" parent="WIyWlLk6GJQsqaUBKTNV-1" source="9xZsUPCnPqPR40P-3TfL-0" target="9xZsUPCnPqPR40P-3TfL-1">
          <mxGeometry relative="1" as="geometry" />
        </mxCell>
        <mxCell id="9xZsUPCnPqPR40P-3TfL-0" value="&lt;font style=&quot;font-size: 14px;&quot;&gt;inicio&lt;/font&gt;" style="strokeWidth=2;html=1;shape=mxgraph.flowchart.start_2;whiteSpace=wrap;" vertex="1" parent="WIyWlLk6GJQsqaUBKTNV-1">
          <mxGeometry x="650" y="20" width="100" height="100" as="geometry" />
        </mxCell>
        <mxCell id="9xZsUPCnPqPR40P-3TfL-12" style="edgeStyle=orthogonalEdgeStyle;rounded=0;orthogonalLoop=1;jettySize=auto;html=1;exitX=0;exitY=0.5;exitDx=0;exitDy=0;exitPerimeter=0;entryX=0.5;entryY=0;entryDx=0;entryDy=0;entryPerimeter=0;" edge="1" parent="WIyWlLk6GJQsqaUBKTNV-1" source="9xZsUPCnPqPR40P-3TfL-1" target="9xZsUPCnPqPR40P-3TfL-10">
          <mxGeometry relative="1" as="geometry" />
        </mxCell>
        <mxCell id="9xZsUPCnPqPR40P-3TfL-18" value="SI" style="edgeLabel;html=1;align=center;verticalAlign=middle;resizable=0;points=[];" vertex="1" connectable="0" parent="9xZsUPCnPqPR40P-3TfL-12">
          <mxGeometry x="-0.4222" y="-3" relative="1" as="geometry">
            <mxPoint as="offset" />
          </mxGeometry>
        </mxCell>
        <mxCell id="9xZsUPCnPqPR40P-3TfL-13" style="edgeStyle=orthogonalEdgeStyle;rounded=0;orthogonalLoop=1;jettySize=auto;html=1;entryX=0.5;entryY=0;entryDx=0;entryDy=0;entryPerimeter=0;" edge="1" parent="WIyWlLk6GJQsqaUBKTNV-1" source="9xZsUPCnPqPR40P-3TfL-1">
          <mxGeometry relative="1" as="geometry">
            <mxPoint x="1280" y="280" as="targetPoint" />
          </mxGeometry>
        </mxCell>
        <mxCell id="9xZsUPCnPqPR40P-3TfL-19" value="NO" style="edgeLabel;html=1;align=center;verticalAlign=middle;resizable=0;points=[];" vertex="1" connectable="0" parent="9xZsUPCnPqPR40P-3TfL-13">
          <mxGeometry x="-0.4941" y="1" relative="1" as="geometry">
            <mxPoint as="offset" />
          </mxGeometry>
        </mxCell>
        <mxCell id="9xZsUPCnPqPR40P-3TfL-1" value="&lt;font style=&quot;font-size: 14px;&quot;&gt;多importa el orden?&lt;/font&gt;" style="strokeWidth=2;html=1;shape=mxgraph.flowchart.decision;whiteSpace=wrap;" vertex="1" parent="WIyWlLk6GJQsqaUBKTNV-1">
          <mxGeometry x="650" y="170" width="100" height="100" as="geometry" />
        </mxCell>
        <mxCell id="9xZsUPCnPqPR40P-3TfL-21" style="edgeStyle=orthogonalEdgeStyle;rounded=0;orthogonalLoop=1;jettySize=auto;html=1;entryX=0.5;entryY=0;entryDx=0;entryDy=0;entryPerimeter=0;" edge="1" parent="WIyWlLk6GJQsqaUBKTNV-1" source="9xZsUPCnPqPR40P-3TfL-10" target="9xZsUPCnPqPR40P-3TfL-14">
          <mxGeometry relative="1" as="geometry" />
        </mxCell>
        <mxCell id="9xZsUPCnPqPR40P-3TfL-22" value="SI" style="edgeLabel;html=1;align=center;verticalAlign=middle;resizable=0;points=[];" vertex="1" connectable="0" parent="9xZsUPCnPqPR40P-3TfL-21">
          <mxGeometry x="-0.4941" relative="1" as="geometry">
            <mxPoint as="offset" />
          </mxGeometry>
        </mxCell>
        <mxCell id="9xZsUPCnPqPR40P-3TfL-23" style="edgeStyle=orthogonalEdgeStyle;rounded=0;orthogonalLoop=1;jettySize=auto;html=1;" edge="1" parent="WIyWlLk6GJQsqaUBKTNV-1" source="9xZsUPCnPqPR40P-3TfL-10" target="9xZsUPCnPqPR40P-3TfL-20">
          <mxGeometry relative="1" as="geometry" />
        </mxCell>
        <mxCell id="9xZsUPCnPqPR40P-3TfL-24" value="NO" style="edgeLabel;html=1;align=center;verticalAlign=middle;resizable=0;points=[];" vertex="1" connectable="0" parent="9xZsUPCnPqPR40P-3TfL-23">
          <mxGeometry x="-0.4933" y="1" relative="1" as="geometry">
            <mxPoint as="offset" />
          </mxGeometry>
        </mxCell>
        <mxCell id="9xZsUPCnPqPR40P-3TfL-10" value="&lt;font style=&quot;font-size: 14px;&quot;&gt;多 se usan todos los elementos?&lt;/font&gt;" style="strokeWidth=2;html=1;shape=mxgraph.flowchart.decision;whiteSpace=wrap;" vertex="1" parent="WIyWlLk6GJQsqaUBKTNV-1">
          <mxGeometry x="140" y="281.5" width="100" height="100" as="geometry" />
        </mxCell>
        <mxCell id="9xZsUPCnPqPR40P-3TfL-27" style="edgeStyle=orthogonalEdgeStyle;rounded=0;orthogonalLoop=1;jettySize=auto;html=1;entryX=0.5;entryY=0;entryDx=0;entryDy=0;entryPerimeter=0;" edge="1" parent="WIyWlLk6GJQsqaUBKTNV-1" source="9xZsUPCnPqPR40P-3TfL-11" target="9xZsUPCnPqPR40P-3TfL-25">
          <mxGeometry relative="1" as="geometry" />
        </mxCell>
        <mxCell id="9xZsUPCnPqPR40P-3TfL-29" value="SI" style="edgeLabel;html=1;align=center;verticalAlign=middle;resizable=0;points=[];" vertex="1" connectable="0" parent="9xZsUPCnPqPR40P-3TfL-27">
          <mxGeometry x="-0.6438" y="-3" relative="1" as="geometry">
            <mxPoint as="offset" />
          </mxGeometry>
        </mxCell>
        <mxCell id="9xZsUPCnPqPR40P-3TfL-28" style="edgeStyle=orthogonalEdgeStyle;rounded=0;orthogonalLoop=1;jettySize=auto;html=1;entryX=0.5;entryY=0;entryDx=0;entryDy=0;entryPerimeter=0;" edge="1" parent="WIyWlLk6GJQsqaUBKTNV-1" source="9xZsUPCnPqPR40P-3TfL-11" target="9xZsUPCnPqPR40P-3TfL-48">
          <mxGeometry relative="1" as="geometry">
            <mxPoint x="1440" y="400" as="targetPoint" />
          </mxGeometry>
        </mxCell>
        <mxCell id="9xZsUPCnPqPR40P-3TfL-30" value="NO" style="edgeLabel;html=1;align=center;verticalAlign=middle;resizable=0;points=[];" vertex="1" connectable="0" parent="9xZsUPCnPqPR40P-3TfL-28">
          <mxGeometry x="-0.4875" relative="1" as="geometry">
            <mxPoint as="offset" />
          </mxGeometry>
        </mxCell>
        <mxCell id="9xZsUPCnPqPR40P-3TfL-11" value="&lt;font style=&quot;font-size: 14px;&quot;&gt;多 se usan todos los elementos?&lt;/font&gt;" style="strokeWidth=2;html=1;shape=mxgraph.flowchart.decision;whiteSpace=wrap;" vertex="1" parent="WIyWlLk6GJQsqaUBKTNV-1">
          <mxGeometry x="1230" y="281.5" width="100" height="100" as="geometry" />
        </mxCell>
        <mxCell id="9xZsUPCnPqPR40P-3TfL-33" style="edgeStyle=orthogonalEdgeStyle;rounded=0;orthogonalLoop=1;jettySize=auto;html=1;entryX=0.5;entryY=0;entryDx=0;entryDy=0;entryPerimeter=0;" edge="1" parent="WIyWlLk6GJQsqaUBKTNV-1" source="9xZsUPCnPqPR40P-3TfL-14" target="9xZsUPCnPqPR40P-3TfL-32">
          <mxGeometry relative="1" as="geometry" />
        </mxCell>
        <mxCell id="9xZsUPCnPqPR40P-3TfL-36" value="NO" style="edgeLabel;html=1;align=center;verticalAlign=middle;resizable=0;points=[];" vertex="1" connectable="0" parent="9xZsUPCnPqPR40P-3TfL-33">
          <mxGeometry x="-0.6" y="-1" relative="1" as="geometry">
            <mxPoint as="offset" />
          </mxGeometry>
        </mxCell>
        <mxCell id="9xZsUPCnPqPR40P-3TfL-34" style="edgeStyle=orthogonalEdgeStyle;rounded=0;orthogonalLoop=1;jettySize=auto;html=1;entryX=0.5;entryY=0;entryDx=0;entryDy=0;entryPerimeter=0;" edge="1" parent="WIyWlLk6GJQsqaUBKTNV-1" source="9xZsUPCnPqPR40P-3TfL-14" target="9xZsUPCnPqPR40P-3TfL-31">
          <mxGeometry relative="1" as="geometry" />
        </mxCell>
        <mxCell id="9xZsUPCnPqPR40P-3TfL-35" value="SI" style="edgeLabel;html=1;align=center;verticalAlign=middle;resizable=0;points=[];" vertex="1" connectable="0" parent="9xZsUPCnPqPR40P-3TfL-34">
          <mxGeometry x="-0.6092" y="-2" relative="1" as="geometry">
            <mxPoint as="offset" />
          </mxGeometry>
        </mxCell>
        <mxCell id="9xZsUPCnPqPR40P-3TfL-14" value="&lt;font style=&quot;font-size: 14px;&quot;&gt;多 se repiten los elementos&lt;/font&gt;" style="strokeWidth=2;html=1;shape=mxgraph.flowchart.decision;whiteSpace=wrap;" vertex="1" parent="WIyWlLk6GJQsqaUBKTNV-1">
          <mxGeometry x="-50" y="400" width="100" height="100" as="geometry" />
        </mxCell>
        <mxCell id="9xZsUPCnPqPR40P-3TfL-15" value="&lt;h1&gt;Permutaciones&lt;/h1&gt;" style="text;html=1;strokeColor=none;fillColor=none;spacing=5;spacingTop=-20;whiteSpace=wrap;overflow=hidden;rounded=0;" vertex="1" parent="WIyWlLk6GJQsqaUBKTNV-1">
          <mxGeometry x="90" y="80" width="190" height="50" as="geometry" />
        </mxCell>
        <mxCell id="9xZsUPCnPqPR40P-3TfL-16" value="&lt;h1&gt;Combinaciones&lt;/h1&gt;" style="text;html=1;strokeColor=none;fillColor=none;spacing=5;spacingTop=-20;whiteSpace=wrap;overflow=hidden;rounded=0;" vertex="1" parent="WIyWlLk6GJQsqaUBKTNV-1">
          <mxGeometry x="1200" y="70" width="190" height="40" as="geometry" />
        </mxCell>
        <mxCell id="9xZsUPCnPqPR40P-3TfL-39" style="edgeStyle=orthogonalEdgeStyle;rounded=0;orthogonalLoop=1;jettySize=auto;html=1;" edge="1" parent="WIyWlLk6GJQsqaUBKTNV-1" source="9xZsUPCnPqPR40P-3TfL-20" target="9xZsUPCnPqPR40P-3TfL-37">
          <mxGeometry relative="1" as="geometry" />
        </mxCell>
        <mxCell id="9xZsUPCnPqPR40P-3TfL-41" value="SI" style="edgeLabel;html=1;align=center;verticalAlign=middle;resizable=0;points=[];" vertex="1" connectable="0" parent="9xZsUPCnPqPR40P-3TfL-39">
          <mxGeometry x="-0.4722" y="2" relative="1" as="geometry">
            <mxPoint as="offset" />
          </mxGeometry>
        </mxCell>
        <mxCell id="9xZsUPCnPqPR40P-3TfL-40" style="edgeStyle=orthogonalEdgeStyle;rounded=0;orthogonalLoop=1;jettySize=auto;html=1;" edge="1" parent="WIyWlLk6GJQsqaUBKTNV-1" source="9xZsUPCnPqPR40P-3TfL-20" target="9xZsUPCnPqPR40P-3TfL-38">
          <mxGeometry relative="1" as="geometry" />
        </mxCell>
        <mxCell id="9xZsUPCnPqPR40P-3TfL-42" value="NO" style="edgeLabel;html=1;align=center;verticalAlign=middle;resizable=0;points=[];" vertex="1" connectable="0" parent="9xZsUPCnPqPR40P-3TfL-40">
          <mxGeometry x="-0.57" y="2" relative="1" as="geometry">
            <mxPoint as="offset" />
          </mxGeometry>
        </mxCell>
        <mxCell id="9xZsUPCnPqPR40P-3TfL-20" value="&lt;font style=&quot;font-size: 14px;&quot;&gt;多 se repiten los elementos&lt;/font&gt;" style="strokeWidth=2;html=1;shape=mxgraph.flowchart.decision;whiteSpace=wrap;" vertex="1" parent="WIyWlLk6GJQsqaUBKTNV-1">
          <mxGeometry x="440" y="400" width="100" height="100" as="geometry" />
        </mxCell>
        <mxCell id="9xZsUPCnPqPR40P-3TfL-25" value="&lt;font style=&quot;font-size: 14px;&quot;&gt;多 se repiten los elementos&lt;/font&gt;" style="strokeWidth=2;html=1;shape=mxgraph.flowchart.decision;whiteSpace=wrap;" vertex="1" parent="WIyWlLk6GJQsqaUBKTNV-1">
          <mxGeometry x="970" y="400" width="100" height="100" as="geometry" />
        </mxCell>
        <mxCell id="9xZsUPCnPqPR40P-3TfL-31" value="&lt;font style=&quot;font-size: 14px;&quot;&gt;Su formula a utilizar es &quot;Pr= = n!/n1!,n2!,n3!.......&quot;&lt;/font&gt;" style="strokeWidth=2;html=1;shape=mxgraph.flowchart.document2;whiteSpace=wrap;size=0.25;" vertex="1" parent="WIyWlLk6GJQsqaUBKTNV-1">
          <mxGeometry x="-230" y="550" width="160" height="70" as="geometry" />
        </mxCell>
        <mxCell id="9xZsUPCnPqPR40P-3TfL-32" value="&lt;font style=&quot;font-size: 14px;&quot;&gt;Su formula ha utilizar es &quot;N!&quot;&lt;/font&gt;" style="strokeWidth=2;html=1;shape=mxgraph.flowchart.document2;whiteSpace=wrap;size=0.25;" vertex="1" parent="WIyWlLk6GJQsqaUBKTNV-1">
          <mxGeometry x="70" y="560" width="160" height="60" as="geometry" />
        </mxCell>
        <mxCell id="9xZsUPCnPqPR40P-3TfL-37" value="&lt;font style=&quot;font-size: 14px;&quot;&gt;Su formula ha utilizar es &quot;Nr&quot;&lt;/font&gt;" style="strokeWidth=2;html=1;shape=mxgraph.flowchart.document2;whiteSpace=wrap;size=0.25;" vertex="1" parent="WIyWlLk6GJQsqaUBKTNV-1">
          <mxGeometry x="254" y="560" width="160" height="60" as="geometry" />
        </mxCell>
        <mxCell id="9xZsUPCnPqPR40P-3TfL-38" value="&lt;font style=&quot;font-size: 14px;&quot;&gt;Su formula ha utilizar es &quot;nPr=n!/(n-r)!&quot;&lt;/font&gt;" style="strokeWidth=2;html=1;shape=mxgraph.flowchart.document2;whiteSpace=wrap;size=0.25;" vertex="1" parent="WIyWlLk6GJQsqaUBKTNV-1">
          <mxGeometry x="550" y="560" width="160" height="60" as="geometry" />
        </mxCell>
        <mxCell id="9xZsUPCnPqPR40P-3TfL-44" style="edgeStyle=orthogonalEdgeStyle;rounded=0;orthogonalLoop=1;jettySize=auto;html=1;" edge="1" parent="WIyWlLk6GJQsqaUBKTNV-1" source="9xZsUPCnPqPR40P-3TfL-48" target="9xZsUPCnPqPR40P-3TfL-49">
          <mxGeometry relative="1" as="geometry" />
        </mxCell>
        <mxCell id="9xZsUPCnPqPR40P-3TfL-45" value="SI" style="edgeLabel;html=1;align=center;verticalAlign=middle;resizable=0;points=[];" vertex="1" connectable="0" parent="9xZsUPCnPqPR40P-3TfL-44">
          <mxGeometry x="-0.4722" y="2" relative="1" as="geometry">
            <mxPoint as="offset" />
          </mxGeometry>
        </mxCell>
        <mxCell id="9xZsUPCnPqPR40P-3TfL-46" style="edgeStyle=orthogonalEdgeStyle;rounded=0;orthogonalLoop=1;jettySize=auto;html=1;" edge="1" parent="WIyWlLk6GJQsqaUBKTNV-1" source="9xZsUPCnPqPR40P-3TfL-48" target="9xZsUPCnPqPR40P-3TfL-50">
          <mxGeometry relative="1" as="geometry" />
        </mxCell>
        <mxCell id="9xZsUPCnPqPR40P-3TfL-47" value="NO" style="edgeLabel;html=1;align=center;verticalAlign=middle;resizable=0;points=[];" vertex="1" connectable="0" parent="9xZsUPCnPqPR40P-3TfL-46">
          <mxGeometry x="-0.57" y="2" relative="1" as="geometry">
            <mxPoint as="offset" />
          </mxGeometry>
        </mxCell>
        <mxCell id="9xZsUPCnPqPR40P-3TfL-48" value="&lt;font style=&quot;font-size: 14px;&quot;&gt;多 se repiten los elementos&lt;/font&gt;" style="strokeWidth=2;html=1;shape=mxgraph.flowchart.decision;whiteSpace=wrap;" vertex="1" parent="WIyWlLk6GJQsqaUBKTNV-1">
          <mxGeometry x="1396" y="400" width="100" height="100" as="geometry" />
        </mxCell>
        <mxCell id="9xZsUPCnPqPR40P-3TfL-49" value="&lt;font style=&quot;font-size: 14px;&quot;&gt;Su formula ha utilizar es &quot;C(n+r-1)= (n+r-1)!/r!(n-1)!!&quot;&lt;/font&gt;" style="strokeWidth=2;html=1;shape=mxgraph.flowchart.document2;whiteSpace=wrap;size=0.25;" vertex="1" parent="WIyWlLk6GJQsqaUBKTNV-1">
          <mxGeometry x="1200" y="555" width="180" height="70" as="geometry" />
        </mxCell>
        <mxCell id="9xZsUPCnPqPR40P-3TfL-50" value="&lt;font style=&quot;font-size: 14px;&quot;&gt;Su formula ha utilizar es &quot;nCr= n!/r!(n-r)!&quot;&lt;/font&gt;" style="strokeWidth=2;html=1;shape=mxgraph.flowchart.document2;whiteSpace=wrap;size=0.25;" vertex="1" parent="WIyWlLk6GJQsqaUBKTNV-1">
          <mxGeometry x="1506" y="560" width="160" height="60" as="geometry" />
        </mxCell>
        <mxCell id="9xZsUPCnPqPR40P-3TfL-51" value="&lt;h1&gt;Datos&lt;/h1&gt;&lt;p&gt;n = numero total de casos&lt;/p&gt;&lt;p&gt;r = numero de elementos que utilizamos&lt;/p&gt;&lt;p&gt;! = factorial&lt;/p&gt;&lt;p&gt;P = letra usualmente utilizada para permutaciones&lt;/p&gt;&lt;p&gt;C = letra usualmente utilizada para Combinaciones&lt;/p&gt;" style="text;html=1;strokeColor=none;fillColor=none;spacing=5;spacingTop=-20;whiteSpace=wrap;overflow=hidden;rounded=0;fontSize=14;" vertex="1" parent="WIyWlLk6GJQsqaUBKTNV-1">
          <mxGeometry x="840" y="-67.5" width="190" height="275" as="geometry" />
        </mxCell>
        <mxCell id="9xZsUPCnPqPR40P-3TfL-52" value="&lt;h1&gt;Tip&lt;/h1&gt;&lt;div&gt;Si el orden importa siempre es permutaci坦n&lt;/div&gt;&lt;div&gt;&lt;br&gt;&lt;/div&gt;&lt;div&gt;Si el orden no importa siempre es Combinaci坦n&lt;/div&gt;" style="text;html=1;strokeColor=none;fillColor=none;spacing=5;spacingTop=-20;whiteSpace=wrap;overflow=hidden;rounded=0;fontSize=14;" vertex="1" parent="WIyWlLk6GJQsqaUBKTNV-1">
          <mxGeometry x="400" y="-67.5" width="190" height="157.5" as="geometry" />
        </mxCell>
      </root>
    </mxGraphModel>
  </diagram>
</mxfile>
